<?xml version="1.0" encoding="utf-8"?>
<!-- Generator: Adobe Illustrator 28.0.0, SVG Export Plug-In . SVG Version: 6.00 Build 0)  -->
<svg version="1.1" id="Layer_1" xmlns="http://www.w3.org/2000/svg" xmlns:xlink="http://www.w3.org/1999/xlink" x="0px" y="0px"
	 viewBox="0 0 143 80" enable-background="new 0 0 143 80" xml:space="preserve">
<g>
	<g>
		<path fill="#231F20" d="M0,41.1h1.4L3,47.6c0.1,0.4,0.2,1.1,0.4,2.1h0.1c0.1-0.8,0.2-1.3,0.3-1.5l1.7-7h1.1l1.6,6.5
			c0.1,0.4,0.2,1.1,0.4,2.1h0.1c0.1-0.7,0.2-1.3,0.3-1.5l1.7-7h1.3L9.3,51.4H7.8l-1.5-6c-0.1-0.4-0.2-1.1-0.3-1.9H5.9
			c0,0.7-0.2,1.3-0.3,1.9l-1.5,6H2.6L0,41.1z"/>
		<polygon fill="#231F20" points="18,41.1 24.4,41.1 24.4,42.4 19.5,42.4 19.5,45.3 23.1,45.3 23.1,46.6 19.5,46.6 19.5,50.1 
			24.6,50.1 24.6,51.4 18,51.4 		"/>
		<path fill="#231F20" d="M31.6,48.5c0.6,1.3,1.3,1.9,2.3,1.9c1.1,0,1.7-0.7,1.7-1.7c0-0.4-0.2-0.8-0.5-1.1c-0.6-0.5-1.3-0.8-2-1.1
			c-0.7-0.4-1.4-0.7-1.9-1.3c-0.3-0.5-0.5-1-0.5-1.6c0-1.6,1.2-2.8,3-2.8c1.5,0,2.5,0.7,3.3,2.1l-1.2,0.8c-0.5-1.1-1.1-1.6-2.1-1.6
			c-1,0-1.5,0.5-1.5,1.3c0,0.3,0.1,0.6,0.3,0.8c0.4,0.5,1.1,0.8,1.9,1.2c1.8,0.9,2.7,1.6,2.7,3.3c0,1.8-1.3,3-3.3,3
			c-1.7,0-2.8-0.8-3.5-2.4L31.6,48.5z"/>
		<polygon fill="#231F20" points="45.1,42.4 42.1,42.4 42.1,41.1 49.5,41.1 49.5,42.4 46.5,42.4 46.5,51.4 45.1,51.4 		"/>
		<polygon fill="#231F20" points="55,41.1 61.4,41.1 61.4,42.4 56.5,42.4 56.5,45.3 60,45.3 60,46.6 56.5,46.6 56.5,50.1 61.6,50.1 
			61.6,51.4 55,51.4 		"/>
		<path fill="#231F20" d="M68.2,41.1h2.7c2.5,0,3.9,1,3.9,2.9c0,1.3-0.7,2.2-2,2.6l2.7,4.8h-1.7l-2.5-4.6h-1.6v4.6h-1.5V41.1z
			 M69.7,45.6h1c1.7,0,2.5-0.5,2.5-1.6c0-1.1-0.8-1.7-2.5-1.7h-1V45.6z"/>
		<path fill="#231F20" d="M81.3,41.1h2l2.4,5.3c0.5,1.1,1,2.2,1.4,3.4h0.1v-8.7h1.2v10.3h-1.9l-2.6-5.8c-0.5-1-0.9-2.1-1.2-3.2h-0.1
			v8.9h-1.2V41.1z"/>
		<polygon fill="#231F20" points="101.1,41.1 107.5,41.1 107.5,42.4 102.6,42.4 102.6,45.6 106.1,45.6 106.1,46.9 102.6,46.9 
			102.6,51.4 101.1,51.4 		"/>
		<path fill="#231F20" d="M118.2,49.2h-4l-0.7,2.2H112l3.4-10.3h1.6l3.4,10.3h-1.5L118.2,49.2z M117.8,48l-1.6-5.4l-1.6,5.4H117.8z"
			/>
		<polygon fill="#231F20" points="125.8,50.4 126.7,50.4 126.7,42.1 125.8,42.1 125.8,41.1 129.1,41.1 129.1,42.1 128.2,42.1 
			128.2,50.4 129.1,50.4 129.1,51.4 125.8,51.4 		"/>
		<path fill="#231F20" d="M135.6,41.1h2.6c2.5,0,3.9,1,3.9,2.9c0,1.3-0.7,2.2-2,2.6l2.7,4.8h-1.7l-2.5-4.6H137v4.6h-1.5V41.1z
			 M137,45.6h1c1.7,0,2.5-0.5,2.5-1.6c0-1.1-0.8-1.7-2.5-1.7h-1V45.6z"/>
		<polygon fill="#00BCE4" points="47.6,30.8 47.6,10.1 23.8,0 23.8,20.8 		"/>
		<polygon fill="#004A61" points="71.4,20.8 71.4,0 47.6,10 47.6,30.8 		"/>
		<polygon fill="#F15D22" points="95.2,30.8 95.2,10.1 71.4,0 71.4,20.8 		"/>
		<polygon fill="#7A2E18" points="119,20.8 119,0 95.2,10 95.2,30.8 		"/>
		<path fill="#231F20" d="M16.5,72.4l3.1,3l-3.1,3l-2.7-2.8c-1.5,1.3-3.4,2.1-5.5,2.1c-4.6,0-8.2-3.7-8.2-8.3c0-4.6,3.7-8.2,8.2-8.2
			c1.5,0,2.8,0.4,3.9,1v-5.8h4.3V72.4z M8.2,73.5c2.1,0,3.9-1.8,3.9-3.9c0-2.1-1.8-3.9-3.9-3.9c-2.1,0-3.9,1.8-3.9,3.9
			C4.3,71.7,6.1,73.5,8.2,73.5"/>
		<rect x="26.5" y="62" fill="#231F20" width="4.3" height="15.2"/>
		<path fill="#231F20" d="M51.4,63.5h-0.7c-2.1,0-3.9,1.8-3.9,3.9v4.4c0,4.6-3.7,8.2-8.3,8.2H38v-4.3h0.7c2.1,0,3.9-1.8,3.9-3.9
			v-4.4c0-4.6,3.7-8.3,8.2-8.3h0.7V63.5z"/>
		<path fill="#231F20" d="M61.1,62v-5.4h4.3V62H70v4.3h-4.6v3.3c0,2.1,1.8,3.9,3.9,3.9H70v4.4h-0.7c-4.6,0-8.3-3.7-8.3-8.3v-3.3H59
			V62H61.1z"/>
		<path fill="#231F20" d="M80.6,66.8l-3-3l3-3l2.8,2.7c1.4-1.3,3.4-2.1,5.5-2.1h0.4v4.3h-0.4c-2.1,0-3.9,1.8-3.9,3.9v7.6h-4.4V66.8z
			"/>
		<rect x="97.2" y="62" fill="#231F20" width="4.3" height="15.2"/>
		<path fill="#231F20" d="M119.8,66.8c-0.9-0.9-1.4-1.2-2.8-1.2c-2.1,0-3.9,1.8-3.9,3.9c0,2.1,1.8,3.9,3.9,3.9
			c1.4,0,1.9-0.3,2.8-1.2l3,3.2c-1.5,1.5-3.6,2.3-5.9,2.3c-4.6,0-8.2-3.7-8.2-8.3c0-4.6,3.7-8.2,8.2-8.2c2.3,0,4.3,0.9,5.9,2.3
			L119.8,66.8z"/>
		<path fill="#231F20" d="M133.9,62v-5.4h4.3V62h4.6v4.3h-4.6v3.3c0,2.1,1.8,3.9,3.9,3.9h0.7v4.4h-0.7c-4.5,0-8.2-3.7-8.2-8.3v-3.3
			h-2.2V62H133.9z"/>
		<path fill="#00BCE4" d="M30.7,58.5c0,1.1-0.9,2-2,2c-1.1,0-2-0.9-2-2c0-1.1,0.9-2,2-2C29.8,56.6,30.7,57.4,30.7,58.5"/>
		<path fill="#F15D22" d="M101.4,58.5c0,1.1-0.9,2-2,2c-1.1,0-2-0.9-2-2c0-1.1,0.9-2,2-2C100.5,56.6,101.4,57.4,101.4,58.5"/>
		<path fill="#231F20" d="M141.1,57.4h-0.4v1.1h-0.2v-1.1h-0.4v-0.2h1V57.4z M141.5,58.5h-0.2v-1.3h0.3l0.4,1l0.4-1h0.3v1.3h-0.2
			v-1.1h0l-0.4,1.1H142l-0.4-1.1h0V58.5z"/>
	</g>
</g>
</svg>
